<?xml version="1.0" encoding="utf-8"?>
<!-- Generator: Adobe Illustrator 25.4.1, SVG Export Plug-In . SVG Version: 6.00 Build 0)  -->
<svg version="1.1" id="Layer_1" xmlns="http://www.w3.org/2000/svg" xmlns:xlink="http://www.w3.org/1999/xlink" x="0px" y="0px"
	 viewBox="0 0 1080 1080" style="enable-background:new 0 0 1080 1080;" xml:space="preserve">
<style type="text/css">
	.st0{fill:#FF671A;}
	.st1{fill:none;stroke:#FFFFFF;stroke-width:18.7958;stroke-linecap:round;stroke-miterlimit:10;}
	.st2{fill:none;stroke:#FFFFFF;stroke-width:18.6698;stroke-linecap:round;stroke-miterlimit:10;}
	.st3{fill:none;stroke:#FFFFFF;stroke-width:20.0792;stroke-linecap:round;stroke-miterlimit:10;}
</style>
<g>
	<path class="st0" d="M2.1,1074.7c0,0,1070.3,17.4,1075.8-1069.3C1077.9,5.4,95.3-34.2,2.1,1074.7z"/>
	<path class="st1" d="M811.9,733c0,0-171.6-150.2-273.4-78.8s28.7,277.3,28.7,277.3"/>
	<path class="st2" d="M1033.4,310.9c0,0-144.4,112.4-263.5,75.6s-433.8-112.3-503-7.7S105.1,538.1,246,691.3s176.3,256.7,185.4,304"
		/>
	<path class="st1" d="M153.7,1054.4c0,0-34.3-119-131.1-137.8"/>
	<path class="st3" d="M1065.2,11.2c0,0-115.4,65.4-169.4,120.8S787.9,272.6,514.6,157"/>
</g>
</svg>
