<?xml version="1.0" encoding="utf-8"?>
<!-- Generator: Adobe Illustrator 25.4.1, SVG Export Plug-In . SVG Version: 6.00 Build 0)  -->
<svg version="1.1" id="Layer_1" xmlns="http://www.w3.org/2000/svg" xmlns:xlink="http://www.w3.org/1999/xlink" x="0px" y="0px"
	 viewBox="0 0 1080 1080" style="enable-background:new 0 0 1080 1080;" xml:space="preserve">
<style type="text/css">
	.st0{fill:#E92200;}
	.st1{fill:none;stroke:#FFFFFF;stroke-width:18.8077;stroke-linecap:round;stroke-miterlimit:10;}
	.st2{fill:none;stroke:#FFFFFF;stroke-width:18.6816;stroke-linecap:round;stroke-miterlimit:10;}
	.st3{fill:none;stroke:#FFFFFF;stroke-width:20.0919;stroke-linecap:round;stroke-miterlimit:10;}
</style>
<g>
	<path class="st0" d="M3.5,1077.8c0,0-14.6-1071,1072.9-1073.6C1076.4,4.2,1113.4,987.5,3.5,1077.8z"/>
	<path class="st1" d="M347.6,268.4c0,0,149.9,172.2,78.1,273.8s-277.4-29.5-277.4-29.5"/>
	<path class="st2" d="M770.5,47.9c0,0-112.9,144.2-76.3,263.5c36.5,119.3,111.2,434.4,6.4,503.4s-159.8,161.5-312.7,20.1
		S131.4,657.7,84.2,648.5"/>
	<path class="st1" d="M24.3,926.2c0,0,118.9,34.7,137.5,131.6"/>
	<path class="st3" d="M1070.6,16.9c0,0-65.8,115.3-121.3,169.2s-141.1,107.6-26.1,381.4"/>
</g>
</svg>
