<?xml version="1.0" encoding="utf-8"?>
<!-- Generator: Adobe Illustrator 25.4.1, SVG Export Plug-In . SVG Version: 6.00 Build 0)  -->
<svg version="1.1" id="Layer_1" xmlns="http://www.w3.org/2000/svg" xmlns:xlink="http://www.w3.org/1999/xlink" x="0px" y="0px"
	 viewBox="0 0 1080 1080" style="enable-background:new 0 0 1080 1080;" xml:space="preserve">
<style type="text/css">
	.st0{fill:#FCB713;}
	.st1{fill:#E92200;}
	.st2{fill:#FF671A;}
	.st3{fill:none;stroke:#FFFFFF;stroke-linecap:round;stroke-miterlimit:10;}
	.st4{fill:none;stroke:#FFFFFF;stroke-width:0.9933;stroke-linecap:round;stroke-miterlimit:10;}
	.st5{fill:none;stroke:#FFFFFF;stroke-width:1.0683;stroke-linecap:round;stroke-miterlimit:10;}
	.st6{fill:none;stroke:#FFFFFF;stroke-width:1.2121;stroke-linecap:round;stroke-miterlimit:10;}
	.st7{fill:none;stroke:#FFFFFF;stroke-width:1.204;stroke-linecap:round;stroke-miterlimit:10;}
	.st8{fill:none;stroke:#FFFFFF;stroke-width:1.2949;stroke-linecap:round;stroke-miterlimit:10;}
	.st9{fill:none;stroke:#780409;stroke-width:1.1032;stroke-linecap:round;stroke-miterlimit:10;}
	.st10{fill:none;stroke:#780409;stroke-width:1.0056;stroke-linecap:round;stroke-miterlimit:10;}
	.st11{fill:none;stroke:#780409;stroke-width:0.9866;stroke-linecap:round;stroke-miterlimit:10;}
	.st12{fill:none;stroke:#780409;stroke-width:1.0187;stroke-linecap:round;stroke-miterlimit:10;}
</style>
<path class="st0" d="M636.3,415.1c0,0-23.1-85.4,63.9-107.8C700.2,307.3,723.2,385.2,636.3,415.1z"/>
<path class="st1" d="M777.4,805.3c0,0-72-1.1-70-74.2C707.3,731.2,773.5,730.6,777.4,805.3z"/>
<path class="st2" d="M845.2,493.8c0,0,28.3-35.2,63.8-6C909,487.8,883.7,520.8,845.2,493.8z"/>
<path class="st0" d="M221.2,935.9c0,0,47.5-16,63.2,32.4C284.4,968.3,241.2,984,221.2,935.9z"/>
<g>
	<path class="st1" d="M951.8,211.8c0,0-25-51.2,27.2-76C979,135.8,1003.1,182.3,951.8,211.8z"/>
	<path class="st3" d="M949.9,165.1c0,0,11.1,4.9,10,11.4s-14,4.9-14,4.9"/>
	<path class="st4" d="M965.2,144.9c0,0-2.1,9.5,2.3,14.4c4.5,4.9,15.2,18.4,11.7,24.1c-3.5,5.7-4,11.4-14.6,8.1s-16.4-2.7-18.8-2.1"
		/>
	<path class="st3" d="M949.3,204.1c0,0,6.5-1,9.6,3.2"/>
	<path class="st5" d="M979,136.6c0,0-0.5,7-2,10.9c-1.4,3.9-4.3,8.4,7.4,18.9"/>
</g>
<g>
	<path class="st2" d="M486.6,802.2c0,0,65.4-22.1,42.2-88.3C528.7,713.9,468.2,732.8,486.6,802.2z"/>
	<path class="st6" d="M528.4,763.9c0,0-13.7-5.4-18.3,1.1s7.8,16.2,7.8,16.2"/>
	<path class="st7" d="M532.7,733.5c0,0-6.3,10-14.4,10.3c-8,0.3-28.8,2.6-30.7,10.4c-1.9,7.9-6.4,13.2,5.5,19.4
		c11.9,6.3,16.3,11.8,17.8,14.4"/>
	<path class="st6" d="M495.3,797.7c0,0-4.7-6.5-10.9-5.5"/>
	<path class="st8" d="M528.1,714.6c0,0-5.6,6.5-7.7,11s-3.5,10.9-22.6,9.8"/>
</g>
<g>
	<path class="st0" d="M951.2,723.7c0,0-46.2-27.7-17.5-74.3C933.7,649.4,976.7,673.8,951.2,723.7z"/>
	<path class="st9" d="M934.1,650.3c0,0,0.7,19.8-8.6,35.2"/>
	<path class="st10" d="M942.9,657.4c0,0-8,24-8.2,29.8s-1.3,18.6,22.9,22.5"/>
	<path class="st11" d="M948.4,663.5c0,0-7.5,36.8,10.1,36.6"/>
	<path class="st12" d="M939.7,713.8c0,0,10.2,4.6,14.8,2.5"/>
</g>
</svg>
