<?xml version="1.0" encoding="utf-8"?>
<!-- Generator: Adobe Illustrator 25.4.1, SVG Export Plug-In . SVG Version: 6.00 Build 0)  -->
<svg version="1.1" id="Layer_1" xmlns="http://www.w3.org/2000/svg" xmlns:xlink="http://www.w3.org/1999/xlink" x="0px" y="0px"
	 viewBox="0 0 1080 1080" style="enable-background:new 0 0 1080 1080;" xml:space="preserve">
<style type="text/css">
	.st0{fill:none;stroke:#780409;stroke-width:3;stroke-linecap:round;stroke-miterlimit:10;}
</style>
<line class="st0" x1="292.8" y1="971.5" x2="322.4" y2="1001.2"/>
<polyline class="st0" points="297.2,884.2 316.2,922 322.4,1001.2 346.8,1081.3 "/>
<polyline class="st0" points="374.2,852.8 437.5,1054.5 457.8,1080 "/>
<line class="st0" x1="408" y1="881.2" x2="399.5" y2="933.3"/>
<path class="st0" d="M376.9,671.1l37.2,83.2c0,0,66,51.4,65.6,52.4c-0.3,1,60.2,96.8,60.2,96.8l4.4,73.8l-13.5,82.2v21.8"/>
<line class="st0" x1="376.9" y1="768.2" x2="414.1" y2="754.3"/>
<line class="st0" x1="518.7" y1="943.1" x2="544.4" y2="977.3"/>
<polyline class="st0" points="455.4,919.4 492,997.9 530.9,1059.5 "/>
<polyline class="st0" points="597.2,980 677.4,1045.3 701.4,1080 "/>
<line class="st0" x1="674.7" y1="985.1" x2="677.4" y2="1045.3"/>
<line class="st0" x1="728.5" y1="970.2" x2="769.8" y2="1078.1"/>
<path class="st0" d="M636.8,869l81.9,50.4l89.3,26.7l59.6,59.9c0,0,39.6,50.1,38.9,51.1c-0.7,1,7.8,22.8,7.8,22.8"/>
<line class="st0" x1="634.1" y1="928.6" x2="718.7" y2="919.4"/>
<line class="st0" x1="886.9" y1="963.8" x2="906.5" y2="1057.2"/>
<line class="st0" x1="945.1" y1="999" x2="991.8" y2="1080"/>
<line class="st0" x1="1013.4" y1="1035.8" x2="1080" y2="1041.6"/>
<polyline class="st0" points="869.9,873.4 995.5,963.8 1081.4,1024.2 "/>
<line class="st0" x1="955.9" y1="875.4" x2="995.5" y2="963.8"/>
<polyline class="st0" points="1081.4,861.6 985.7,846.3 851.7,807.4 763.3,691 705.5,619 676.4,497.5 593.8,377 544.4,380.7 
	483.1,347.2 "/>
<polyline class="st0" points="513,482.9 584,520.8 659.8,594.9 705.5,619 "/>
<polyline class="st0" points="571.1,472.1 584,520.8 540,537.4 "/>
<polyline class="st0" points="551,629.1 620.5,671.1 699.7,697.8 763.3,691 763.3,615.9 740,550.9 "/>
<line class="st0" x1="686.5" y1="459.6" x2="676.4" y2="497.5"/>
<polyline class="st0" points="585.7,735.5 657.2,792.1 740.3,822.7 851.7,807.4 "/>
<polyline class="st0" points="652,753 657.2,792.1 599.6,810.5 "/>
<polyline class="st0" points="1081.4,779.1 1007.7,761.1 925.5,719.8 875.7,706.6 "/>
<line class="st0" x1="959.3" y1="765.5" x2="1007.7" y2="761.1"/>
<line class="st0" x1="763.3" y1="409.8" x2="838.8" y2="421.3"/>
<polyline class="st0" points="758.9,501.5 834.4,522.2 952.6,623 1017.5,627.4 "/>
<path class="st0" d="M1021.5,700.1c-1,0.7,63.6-44.3,63.6-44.3l-67.7-28.4l-20.3-57.5l-80.9-91.4l-77.5-57.2l-40.9-43l-61.9-31.1"/>
<line class="st0" x1="828" y1="639.3" x2="952.6" y2="623"/>
<polyline class="st0" points="944.4,443.7 1015.8,488.3 1058.1,496.1 "/>
<polyline class="st0" points="1081.4,512.7 1058.1,496.1 1033.4,421.3 1006.3,292.4 903.4,257.9 820.2,162.1 "/>
<line class="st0" x1="838.8" y1="261.3" x2="903.4" y2="257.9"/>
<line class="st0" x1="952.9" y1="225.1" x2="957.4" y2="276"/>
<line class="st0" x1="1013.7" y1="204" x2="1006.3" y2="292.4"/>
<polyline class="st0" points="815.1,317.5 896,339.1 980,376 1033.4,421.3 "/>
<line class="st0" x1="965.2" y1="329.3" x2="980" y2="376"/>
</svg>
